<svg xmlns="http://www.w3.org/2000/svg" viewBox="0 0 496.07 162.65"><defs><style>.cls-1{fill:#742602;}</style></defs><g id="Layer_2" data-name="Layer 2"><g id="Layer_1-2" data-name="Layer 1"><path class="cls-1" d="M25.26,106.09a1.9,1.9,0,0,1-1.39-.61,39.73,39.73,0,0,1-4-6.18C17.66,94.66,5.3,76,1.56,70.39A9.3,9.3,0,0,1,.1,63.88a3,3,0,0,1,5.19-1.69l12.34,12.6a1.83,1.83,0,0,1,.17,2.62,1.92,1.92,0,0,1-2.68.17c-.12-.1-.22-.19-11.3-11.51a5.71,5.71,0,0,0,.87,2.23C9.52,75.56,21,92.93,23.27,97.6a36,36,0,0,0,3.38,5.34,1.88,1.88,0,0,1-1.39,3.15Z"/><path class="cls-1" d="M29.09,100.84a1.88,1.88,0,0,1-1.61-.91c-1.19-2-11.69-19.29-12.73-22.26-.66-1.89-1-11.18-.93-27.62A3.26,3.26,0,0,1,19,47.43l.22.16a5.85,5.85,0,0,1,2.29,3.65c2.66,14,4.48,21.46,5.1,22.58,1.2,2.18,7.59,10.55,10,13.6a1.88,1.88,0,1,1-3,2.3c-.36-.46-8.68-11.2-10.27-14.08-1.27-2.29-3.7-14.16-5.5-23.7a2.34,2.34,0,0,0-.26-.68c0,16.81.36,24.07.72,25.17.68,1.95,8,14.25,12.4,21.55a1.89,1.89,0,0,1-1.61,2.86ZM16.79,50.46h0Z"/><path class="cls-1" d="M78.6,162.65a1.77,1.77,0,0,1-.67-.13,1.87,1.87,0,0,1-1.09-2.42c.63-1.66,1.31-3.36,2-5.07,2.39-5.92,4.87-12,5.48-18,.65-6.36-1.21-27.7-2.29-31.75-2.74-10.3-5.85-18.16-9.53-24-1.31-2.1-3-6.37-4.73-10.89s-3.66-9.4-5-11.6c-1.12-1.77-1.75-2-1.79-2s-.57.27-1.46,2.18c-.73,2.1,2.14,15.76,5.24,27.23a7.32,7.32,0,0,1-.59,6c-1.5,2.49-4.53,4-9,4.54-4.19.48-7.56-.28-10-2.28a9.91,9.91,0,0,1-3.49-6.35c0-.41-.66-9.49.3-13.71a1.87,1.87,0,0,1,.35-.74L56,56.15a3,3,0,0,0,.28-.57,77.36,77.36,0,0,1-11.79,9c-3.91,2.27-6.16,3.85-6.08,5.21.17,2.57-2.56,14.59-3.11,17A1.88,1.88,0,1,1,31.59,86c1.55-6.76,3.11-14.55,3-15.9-.23-3.67,3.15-5.92,8-8.7,3.7-2.14,10.49-7.58,12.53-10A2.8,2.8,0,0,1,60,52.72l.07.38a3.28,3.28,0,0,1,.65-.1c2.73-.15,4.58,2.76,5.19,3.73,1.58,2.5,3.5,7.45,5.36,12.23A85.12,85.12,0,0,0,75.7,79.23c3.88,6.2,7.14,14.4,10,25.06,1.21,4.55,3.1,26.18,2.39,33.11-.66,6.5-3.24,12.88-5.74,19-.68,1.69-1.35,3.35-2,5A1.89,1.89,0,0,1,78.6,162.65ZM45.37,87.77a6.23,6.23,0,0,0,2.17,3.76c1.63,1.31,4,1.79,7.15,1.42s5.34-1.3,6.21-2.71a3.56,3.56,0,0,0,.28-2.84,1.15,1.15,0,0,1-.06-.17c-1.57-5.84-4.62-17.74-5.28-24.84L45.52,75.58c-.6,3.22-.31,9.82-.15,12.19ZM56.3,53.3v0Z"/><path class="cls-1" d="M56.81,157.19A1.94,1.94,0,0,1,56,157a1.89,1.89,0,0,1-.84-2.53c.08-.16,7.62-16.84-13.84-31.77-16.74-11.64-20.14-16-25.29-22.49l-1.65-2.1c-.37-.46-.76-.9-1.14-1.35a22,22,0,0,1-2.62-3.45L2.74,79.74a1.09,1.09,0,0,1-.08-.15,3.18,3.18,0,0,1,4.26-4.21,2,2,0,0,1,.66.52l11,13.72A1.88,1.88,0,0,1,15.62,92l-5.28-6.59,3.5,6.05a19,19,0,0,0,2.21,2.87q.63.72,1.23,1.47c.59.73,1.14,1.43,1.68,2.11,4.93,6.27,8.2,10.41,24.47,21.74,20.29,14.11,17.76,31.16,15.07,36.54A1.9,1.9,0,0,1,56.81,157.19Z"/><path class="cls-1" d="M34.15,103.39A1.91,1.91,0,0,1,33,103a1.89,1.89,0,0,1-.31-2.64C33,100,59.76,65.71,57.22,44.15c-.87-7.38.29-16.35,3.45-26.66a1.88,1.88,0,1,1,3.6,1.1c-3,9.81-4.12,18.26-3.31,25.12,1.15,9.77-2.79,22.7-11.7,38.41a183.08,183.08,0,0,1-13.63,20.55A1.88,1.88,0,0,1,34.15,103.39Z"/><path class="cls-1" d="M64,30.65a14.5,14.5,0,0,1-4.7-.77,1.86,1.86,0,0,1-1.15-2.3c1.28-4.24,3.49-7.08,6.58-8.46,4.71-2.11,9.6.14,9.8.23a1.87,1.87,0,0,1,1,2.28c-1.22,3.8-3.33,6.44-6.27,7.87A12,12,0,0,1,64,30.65Zm-1.56-3.87a9.07,9.07,0,0,0,5.2-.68,7.91,7.91,0,0,0,3.61-3.87,8,8,0,0,0-5,.33A7.9,7.9,0,0,0,62.45,26.78Z"/><path class="cls-1" d="M62.75,51.64A14,14,0,0,1,58.49,51a1.86,1.86,0,0,1-1.22-2.26c1.14-4.28,3.26-7.19,6.31-8.67,4.64-2.25,9.59-.16,9.8-.07a1.88,1.88,0,0,1,1.07,2.24c-1.11,3.83-3.13,6.55-6,8.06A12.16,12.16,0,0,1,62.75,51.64Zm-1.22-3.83A9.07,9.07,0,0,0,66.7,47a8,8,0,0,0,3.5-4,8.05,8.05,0,0,0-5,.49A7.91,7.91,0,0,0,61.53,47.81Z"/><path class="cls-1" d="M62.23,21a1.74,1.74,0,0,1-.45-.06c-.22-.05-5.41-1.38-8-5.91C52.13,12.21,51.87,8.83,53,5a1.88,1.88,0,0,1,2.1-1.33c.23,0,5.53.92,8.24,5.31,1.79,2.88,2,6.48.69,10.7A1.88,1.88,0,0,1,62.23,21Zm-6-13.11A8,8,0,0,0,57,13.14a9.1,9.1,0,0,0,3.92,3.47A7.89,7.89,0,0,0,60.15,11,8,8,0,0,0,56.19,7.9Z"/><path class="cls-1" d="M58.64,41.32a13.7,13.7,0,0,1-9-3.36c-2.38-2.24-3.6-5.4-3.63-9.38a1.88,1.88,0,0,1,1.63-1.88c.23,0,5.56-.7,9.42,2.71,2.54,2.25,3.8,5.63,3.75,10.05A1.9,1.9,0,0,1,59,41.32ZM49.86,30.43a7.94,7.94,0,0,0,2.29,4.78,9.07,9.07,0,0,0,4.75,2.2,7.84,7.84,0,0,0-2.38-5.18A8,8,0,0,0,49.86,30.43Z"/><path class="cls-1" d="M22.28,29.33a1.25,1.25,0,0,1-.49-2.41l14-5.85a1.26,1.26,0,0,1,1,2.32l-14,5.84A1.18,1.18,0,0,1,22.28,29.33Z"/><path class="cls-1" d="M32.2,33.41A1.25,1.25,0,0,1,31,32.63l-5.84-14a1.25,1.25,0,1,1,2.31-1l5.84,14a1.25,1.25,0,0,1-.67,1.64A1.37,1.37,0,0,1,32.2,33.41Z"/><path class="cls-1" d="M26,35.48a1.25,1.25,0,0,1-1.16-1.73l7.32-17.82a1.26,1.26,0,0,1,2.32,1L27.18,34.7A1.25,1.25,0,0,1,26,35.48Z"/><path class="cls-1" d="M38.63,30.25a1.18,1.18,0,0,1-.48-.1L20.26,22.8a1.25,1.25,0,1,1,.95-2.32l17.9,7.36a1.25,1.25,0,0,1-.48,2.41Z"/><path class="cls-1" d="M77.14,14.17a1.25,1.25,0,0,1-.48-2.41l14-5.84a1.25,1.25,0,0,1,1.64.67,1.26,1.26,0,0,1-.68,1.64l-14,5.85A1.32,1.32,0,0,1,77.14,14.17Z"/><path class="cls-1" d="M87.06,18.25a1.24,1.24,0,0,1-1.15-.77l-5.85-14a1.26,1.26,0,0,1,2.32-1l5.84,14a1.25,1.25,0,0,1-.67,1.64A1.23,1.23,0,0,1,87.06,18.25Z"/><path class="cls-1" d="M80.89,20.33a1.18,1.18,0,0,1-.48-.1,1.24,1.24,0,0,1-.68-1.63L87.05.78A1.24,1.24,0,0,1,88.68.1a1.24,1.24,0,0,1,.69,1.63L82.05,19.55A1.25,1.25,0,0,1,80.89,20.33Z"/><path class="cls-1" d="M93.5,15.1A1.18,1.18,0,0,1,93,15L75.12,7.65A1.26,1.26,0,0,1,74.44,6a1.25,1.25,0,0,1,1.64-.68L94,12.68a1.26,1.26,0,0,1-.47,2.42Z"/><path class="cls-1" d="M78.06,67a1.26,1.26,0,0,1-.49-2.41l14-5.85a1.25,1.25,0,0,1,1,2.31l-14,5.85A1.37,1.37,0,0,1,78.06,67Z"/><path class="cls-1" d="M88,71.09a1.26,1.26,0,0,1-1.16-.77L81,56.32a1.25,1.25,0,1,1,2.31-1l5.84,14A1.25,1.25,0,0,1,88.46,71,1.36,1.36,0,0,1,88,71.09Z"/><path class="cls-1" d="M81.8,73.17a1.36,1.36,0,0,1-.48-.09,1.26,1.26,0,0,1-.68-1.64L88,53.62a1.25,1.25,0,0,1,1.64-.68,1.24,1.24,0,0,1,.68,1.63L83,72.39A1.25,1.25,0,0,1,81.8,73.17Z"/><path class="cls-1" d="M94.41,67.94a1.18,1.18,0,0,1-.48-.1L76,60.49A1.25,1.25,0,1,1,77,58.17l17.9,7.35a1.26,1.26,0,0,1-.48,2.42Z"/><path class="cls-1" d="M122,86.18a4.79,4.79,0,0,1-1.83-.29c-.46-.19-.69-.46-.69-.79q-.78-3.24-1.58-8t-1.62-10.28q-.83-5.53-1.72-11.15T112.64,45q-1-5.12-2.12-9a21.85,21.85,0,0,0-2.41-5.86,23.82,23.82,0,0,1,3.7-1.37,12.8,12.8,0,0,1,3.42-.5,4.09,4.09,0,0,1,2.3.61,5.44,5.44,0,0,1,1.73,2.34,25.77,25.77,0,0,1,1.51,5c.48,2.16,1,5,1.55,8.49s1.18,7.82,1.9,12.95l2.52,17.69q1.65-4.38,3.38-9t3.35-9.17c1.08-3,2.08-6,3-8.78s1.77-5.38,2.52-7.73,1.35-4.39,1.83-6.11l4.39,12.44c-1.1,2.69-2.32,5.53-3.63,8.53s-2.65,6-4,8.95-2.61,5.8-3.81,8.49-2.27,5.1-3.2,7.23-1.64,3.83-2.12,5.07a11.36,11.36,0,0,1-1.62.4c-.84.17-1.72.31-2.63.43A17.72,17.72,0,0,1,122,86.18Zm25.4,0a4.89,4.89,0,0,1-1.84-.29c-.45-.19-.68-.46-.68-.79q-.8-3.24-1.58-8t-1.62-10.28q-.82-5.53-1.73-11.15T138,45c-.67-3.41-1.37-6.42-2.12-9a21.21,21.21,0,0,0-2.41-5.86,23.92,23.92,0,0,1,3.71-1.37,12.73,12.73,0,0,1,3.41-.5,4.12,4.12,0,0,1,2.31.61,5.35,5.35,0,0,1,1.72,2.34,25.77,25.77,0,0,1,1.51,5q.72,3.24,1.55,8.49t1.91,12.95l2.51,17.69q2.1-5.46,4.07-10.75t3.7-10.25q1.74-5,3.13-9.35c.94-2.93,1.75-5.58,2.45-8s1.25-4.4,1.65-6.08a23.8,23.8,0,0,0,.69-3.74,16,16,0,0,1,5.72,2.08,3.88,3.88,0,0,1,2.05,3.17,15.75,15.75,0,0,1-1,4.28q-1,3-2.7,7.12t-3.74,8.92q-2.05,4.79-4.24,9.68l-4.21,9.35c-1.34,3-2.52,5.64-3.53,8s-1.77,4.18-2.3,5.47a11.36,11.36,0,0,1-1.62.4c-.84.17-1.71.31-2.62.43A17.86,17.86,0,0,1,147.39,86.18Z"/><path class="cls-1" d="M191.92,86.25a14.92,14.92,0,0,1-5.58-1.11,14.69,14.69,0,0,1-5-3.42,17.26,17.26,0,0,1-3.59-5.86,23.41,23.41,0,0,1-1.37-8.46,30.58,30.58,0,0,1,2-11.15A24.75,24.75,0,0,1,184,47.48a18.12,18.12,0,0,1,8.6-4.82,2.56,2.56,0,0,1,1.44.43,1.41,1.41,0,0,1,.71,1,19.21,19.21,0,0,0-5.07,4.64,18.8,18.8,0,0,0-3.41,7.81l.43.14a23,23,0,0,1,4.78-7.8A16.46,16.46,0,0,1,197.24,45a15.18,15.18,0,0,1,5.25-1.11,9.14,9.14,0,0,1,5.65,1.87,12.81,12.81,0,0,1,4,5.36,21.55,21.55,0,0,1,1.47,8.38,37.23,37.23,0,0,1-1.22,9.32,29.18,29.18,0,0,1-3.81,8.66,19.93,19.93,0,0,1-6.73,6.37A19.3,19.3,0,0,1,191.92,86.25Zm1.58-5.18a6.69,6.69,0,0,0,4.6-1.8,14.48,14.48,0,0,0,3.42-4.78,28.38,28.38,0,0,0,2.12-6.62,37.08,37.08,0,0,0,.72-7.23c0-4.27-.53-7.25-1.58-9a4.66,4.66,0,0,0-4-2.55,7.26,7.26,0,0,0-4.57,1.76,16.58,16.58,0,0,0-3.85,4.64,27.73,27.73,0,0,0-2.62,6.37,25.48,25.48,0,0,0-1,6.87,26,26,0,0,0,.68,6.19,10.34,10.34,0,0,0,2.16,4.46A5,5,0,0,0,193.5,81.07Z"/><path class="cls-1" d="M233.86,57.91a35.14,35.14,0,0,1,4.21-7.45,22.82,22.82,0,0,1,5-5,8.36,8.36,0,0,1,4.71-1.8,7.5,7.5,0,0,1,4.93,1.48,7.91,7.91,0,0,1,2.48,4.1,23.39,23.39,0,0,1,.72,6.15,29.25,29.25,0,0,1,6.3-8.53q3.56-3.2,6.43-3.2a8.23,8.23,0,0,1,4.86,1.26,6.71,6.71,0,0,1,2.48,3.56,18.2,18.2,0,0,1,.72,5.4,43.18,43.18,0,0,1-.43,6.08c-.29,2-.61,4.06-1,6.08s-.69,4-1,6.08a44,44,0,0,0-.43,6.22,9.73,9.73,0,0,0,1,5,8.7,8.7,0,0,0,3.1,2.84,13.24,13.24,0,0,1-1.37.07h-1.3q-5.9,0-8.52-1.8c-1.75-1.2-2.63-3.4-2.63-6.62a35,35,0,0,1,.72-6.58c.48-2.47,1-5,1.44-7.73a43.48,43.48,0,0,0,.72-7.63,7,7,0,0,0-.72-3.52,2.35,2.35,0,0,0-2.16-1.23A5.27,5.27,0,0,0,260.69,53a19.14,19.14,0,0,0-3.56,5.32,38.16,38.16,0,0,0-2.77,8.35,50.37,50.37,0,0,0-1.08,10.9c0,1.2,0,2.43.11,3.7s.18,2.58.32,3.92c-.57,0-1.11.09-1.62.11s-1,0-1.4,0q-4,0-5.83-1.41c-1.2-.93-1.79-2.5-1.79-4.71a29.58,29.58,0,0,1,.46-4.68q.47-2.8,1.08-6T245.69,62a43.84,43.84,0,0,0,.47-6.15c0-3.16-1-4.75-2.88-4.75A5.25,5.25,0,0,0,239.83,53a19,19,0,0,0-3.56,5.29,37.24,37.24,0,0,0-2.77,8.31,50.65,50.65,0,0,0-1.08,11c0,1.2,0,2.43.11,3.7s.18,2.58.32,3.92c-.58,0-1.12.09-1.62.11s-1,0-1.4,0q-4,0-5.83-1.41t-1.8-4.71a32.38,32.38,0,0,1,.43-4.06q.44-2.85,1.05-6.66t1-7.88a71.92,71.92,0,0,0,.43-7.66,50.87,50.87,0,0,0-.29-5.54,36.38,36.38,0,0,0-.93-5.25,15.16,15.16,0,0,1,5.86,3,10,10,0,0,1,2.84,4.21,15.94,15.94,0,0,1,.8,5.15c0,.52,0,1.06,0,1.61a12,12,0,0,1-.18,1.62Z"/><path class="cls-1" d="M299.32,86.25a13.13,13.13,0,0,1-7.52-2.16A13.8,13.8,0,0,1,286.88,78a22.9,22.9,0,0,1-1.73-9.28,28.87,28.87,0,0,1,1.65-9.89,24.49,24.49,0,0,1,4.64-8,21.48,21.48,0,0,1,7-5.29,20.24,20.24,0,0,1,8.77-1.91c3.6,0,6.42.93,8.46,2.77a9.84,9.84,0,0,1,3.05,7.66,12.1,12.1,0,0,1-2.05,7A13.5,13.5,0,0,1,311,65.78a20,20,0,0,1-8.52,1.69,29,29,0,0,1-3.85-.25,30.9,30.9,0,0,1-3.64-.68l.22-2.88h1.87a14.4,14.4,0,0,0,6.48-1.36,10.21,10.21,0,0,0,4.24-3.85,10.91,10.91,0,0,0,1.51-5.79,5,5,0,0,0-1-3.28,3.42,3.42,0,0,0-2.77-1.26,5.66,5.66,0,0,0-4.28,2,16.26,16.26,0,0,0-3.1,5.18,34.37,34.37,0,0,0-1.87,6.8,41.7,41.7,0,0,0-.61,6.83q0,5.84,1.76,8.92a5.55,5.55,0,0,0,5.08,3.1q6.25,0,11-7.05c1.73.43,2.59,1.32,2.59,2.66a21.22,21.22,0,0,1-7.26,7.19A18.52,18.52,0,0,1,299.32,86.25Z"/><path class="cls-1" d="M337.09,60.57a38.78,38.78,0,0,1,4.42-8.78,23.52,23.52,0,0,1,5.69-6,10.39,10.39,0,0,1,6-2.16c2.83,0,4.85.93,6.05,2.77A13.62,13.62,0,0,1,361,53.88a48.28,48.28,0,0,1-.68,8.09c-.46,2.71-.92,5.42-1.4,8.13a47.18,47.18,0,0,0-.72,8.24,9.62,9.62,0,0,0,1,5,8.74,8.74,0,0,0,3.09,2.84,13.24,13.24,0,0,1-1.37.07h-1.29q-5.91,0-8.53-1.8c-1.75-1.2-2.62-3.4-2.62-6.62A30.23,30.23,0,0,1,349,73c.29-1.77.62-3.63,1-5.57s.72-3.9,1-5.86a39,39,0,0,0,.43-5.69c0-3.16-1-4.75-2.87-4.75A6.12,6.12,0,0,0,344.82,53a20.08,20.08,0,0,0-4.06,5.4,36.38,36.38,0,0,0-3.24,8.53,44.77,44.77,0,0,0-1.29,11.18c0,1.11,0,2.24.07,3.42a29,29,0,0,0,.36,3.63c-.58,0-1.12.09-1.62.11s-1,0-1.4,0q-4.11,0-5.9-1.44t-1.8-4.75a29.56,29.56,0,0,1,.47-4.5c.31-1.94.65-4.13,1-6.58s.73-5,1-7.59a63.89,63.89,0,0,0,.47-7.52,53.51,53.51,0,0,0-.29-5.54,36.38,36.38,0,0,0-.93-5.25q5.61,1.8,7.51,5a13.93,13.93,0,0,1,1.91,7.33c0,.92-.05,1.87-.14,2.88s-.22,2.06-.36,3.17Z"/><path class="cls-1" d="M107.68,151.33a13.4,13.4,0,0,1,.86-2.26,10.21,10.21,0,0,1,2-2.84,10.86,10.86,0,0,1,3.85-2.41,17.05,17.05,0,0,1,6.26-1c3.5,0,6.91-.11,10.25-.35s6.37-.57,9.1-1a38.91,38.91,0,0,0,6.47-1.4q-.65,5.4-3.27,8.31a8.34,8.34,0,0,1-6.44,2.91,33.93,33.93,0,0,1-4.21-.32q-2.55-.33-5.82-.61t-7.09-.29c-1.87,0-3.81.09-5.83.25A44.91,44.91,0,0,0,107.68,151.33Zm13.74-3-7.7-.07a8.07,8.07,0,0,1-1.58-3.13,15.77,15.77,0,0,1-.43-3.92,53.15,53.15,0,0,1,.43-5.93q.42-3.7,1-8.31c.41-3.07.81-6.26,1.22-9.57s.76-6.57,1-9.79.43-6.18.43-8.91c0-1,0-2-.07-3s-.12-2-.22-2.87a23.9,23.9,0,0,1,5.86.79,6.57,6.57,0,0,1,3.1,1.76,5.28,5.28,0,0,1,1.22,2.59,19.77,19.77,0,0,1,.25,3.34,58.68,58.68,0,0,1-.47,6.33q-.47,4-1.18,9t-1.44,10.14q-.72,5.17-1.19,9.89t-.47,8.24c0,.62,0,1.22,0,1.8S121.37,147.79,121.42,148.31Z"/><path class="cls-1" d="M164.15,151.55a14.74,14.74,0,0,1-5.58-1.12,14.52,14.52,0,0,1-5-3.41,17.21,17.21,0,0,1-3.59-5.87,23.57,23.57,0,0,1-1.37-8.45,30.54,30.54,0,0,1,2-11.15,25,25,0,0,1,5.65-8.78,18.19,18.19,0,0,1,8.6-4.81,2.51,2.51,0,0,1,1.44.43,1.44,1.44,0,0,1,.72,1A19.08,19.08,0,0,0,162,114a18.74,18.74,0,0,0-3.41,7.81l.43.14a23,23,0,0,1,4.78-7.8,16.55,16.55,0,0,1,5.72-3.89,15.18,15.18,0,0,1,5.25-1.11,9.12,9.12,0,0,1,5.65,1.87,12.73,12.73,0,0,1,4,5.36,21.51,21.51,0,0,1,1.47,8.38,37.15,37.15,0,0,1-1.22,9.31,29.13,29.13,0,0,1-3.81,8.67,19.93,19.93,0,0,1-6.73,6.37A19.3,19.3,0,0,1,164.15,151.55Zm1.58-5.18a6.73,6.73,0,0,0,4.61-1.8,14.61,14.61,0,0,0,3.41-4.78,28.38,28.38,0,0,0,2.12-6.62,37.08,37.08,0,0,0,.72-7.23c0-4.27-.52-7.25-1.58-9a4.65,4.65,0,0,0-4-2.55,7.26,7.26,0,0,0-4.57,1.76,16.25,16.25,0,0,0-3.84,4.64,27.31,27.31,0,0,0-2.63,6.37,25.43,25.43,0,0,0-1,6.87,26.49,26.49,0,0,0,.68,6.19,10.34,10.34,0,0,0,2.16,4.46A5,5,0,0,0,165.73,146.37Z"/><path class="cls-1" d="M207.46,150.47a17.74,17.74,0,0,1-2.09.61,13,13,0,0,1-3.09.4,4.84,4.84,0,0,1-1.62-.25,1.21,1.21,0,0,1-.83-.83q-1.23-4.89-2.19-10.61c-.65-3.82-1.3-7.61-1.95-11.4s-1.38-7.28-2.19-10.47a27.43,27.43,0,0,0-3.09-7.74,16.49,16.49,0,0,1,3.38-1.4,14.08,14.08,0,0,1,3.81-.47,3.67,3.67,0,0,1,3.24,1.8,14.78,14.78,0,0,1,1.76,5.15q.61,3.34,1.08,7.91t1.19,10.14q.7,5.58,2.08,11.91l-2.23-2.16q1.72-3.24,3.63-7.12t3.78-7.91c1.25-2.69,2.38-5.31,3.38-7.88a69.4,69.4,0,0,0,2.41-7.16,21.94,21.94,0,0,0,.9-5.61,15,15,0,0,1,4.53,3.13,5.05,5.05,0,0,1,1.37,3.42,14.1,14.1,0,0,1-1.22,5,74,74,0,0,1-3.2,6.73q-2,3.7-4.32,7.84T211.41,142Q209.18,146.23,207.46,150.47Z"/><path class="cls-1" d="M242.13,151.55a13.13,13.13,0,0,1-7.52-2.16,13.89,13.89,0,0,1-4.93-6.11A23.08,23.08,0,0,1,228,134a28.87,28.87,0,0,1,1.65-9.89,24.31,24.31,0,0,1,4.64-8,21.48,21.48,0,0,1,7-5.29A20.24,20.24,0,0,1,250,109c3.6,0,6.42.93,8.46,2.77a9.84,9.84,0,0,1,3.05,7.66,12.1,12.1,0,0,1-2.05,7,13.5,13.5,0,0,1-5.68,4.71,20,20,0,0,1-8.53,1.69,28.91,28.91,0,0,1-3.84-.25,32.24,32.24,0,0,1-3.64-.68L238,129h1.87a14.19,14.19,0,0,0,6.47-1.37,10.16,10.16,0,0,0,4.25-3.84,10.93,10.93,0,0,0,1.51-5.8,5,5,0,0,0-1-3.27,3.42,3.42,0,0,0-2.77-1.26,5.66,5.66,0,0,0-4.28,2,16.26,16.26,0,0,0-3.1,5.18,34.37,34.37,0,0,0-1.87,6.8,40.53,40.53,0,0,0-.61,6.83q0,5.83,1.76,8.92a5.55,5.55,0,0,0,5.07,3.1q6.27,0,11-7c1.73.43,2.59,1.32,2.59,2.66a21.3,21.3,0,0,1-7.26,7.19A18.52,18.52,0,0,1,242.13,151.55Z"/><path class="cls-1" d="M328.89,118.82a8.22,8.22,0,0,1-.69,3.67,4.67,4.67,0,0,1-1.76,2,6.67,6.67,0,0,1-2.34.86,13.33,13.33,0,0,1-2.34.22c-1.77,0-3.56,0-5.35-.07s-3.61-.07-5.44-.07a82,82,0,0,0-9.1.5A36,36,0,0,0,293,128.1c-.05-.39-.09-.78-.11-1.19s0-.8,0-1.19a5.58,5.58,0,0,1,4.78-6.22,23.4,23.4,0,0,1,4.85-.47h5.15q3.92,0,9.53-.07Zm-19.71-17.56a58.68,58.68,0,0,1-.47,6.33q-.46,4-1.19,9t-1.44,10.14q-.72,5.17-1.18,9.89a82.33,82.33,0,0,0-.47,8.24,37.86,37.86,0,0,0,.25,4.68,12.12,12.12,0,0,0,.75,3.16,21.31,21.31,0,0,1-6.54-2.62,8.13,8.13,0,0,1-3.17-3.75,14.08,14.08,0,0,1-.86-5.14,53.15,53.15,0,0,1,.43-5.93q.43-3.7,1-8.31t1.23-9.57q.6-5,1-9.79t.43-8.91c0-1,0-2-.07-3s-.12-2-.22-2.87a24,24,0,0,1,5.87.79,6.58,6.58,0,0,1,3.09,1.76,5.11,5.11,0,0,1,1.22,2.59A19.7,19.7,0,0,1,309.18,101.26Zm30.14,0a58.68,58.68,0,0,1-.47,6.33q-.47,4-1.19,9t-1.44,10.14q-.72,5.17-1.18,9.89t-.47,8.24c0,3.65.33,6.26,1,7.84a21.49,21.49,0,0,1-6.55-2.62,8.1,8.1,0,0,1-3.16-3.75,13.87,13.87,0,0,1-.87-5.14,55.69,55.69,0,0,1,.43-5.93q.44-3.7,1.05-8.31t1.22-9.57q.62-5,1-9.79t.43-8.91c0-1,0-2-.07-3s-.12-2-.21-2.87a24,24,0,0,1,5.86.79,6.53,6.53,0,0,1,3.09,1.76,5.21,5.21,0,0,1,1.23,2.59A20.86,20.86,0,0,1,339.32,101.26Z"/><path class="cls-1" d="M362.12,151.55a13.13,13.13,0,0,1-7.52-2.16,13.8,13.8,0,0,1-4.92-6.11A23.07,23.07,0,0,1,348,134a28.87,28.87,0,0,1,1.65-9.89,24.49,24.49,0,0,1,4.64-8,21.48,21.48,0,0,1,7-5.29A20.24,20.24,0,0,1,370,109c3.6,0,6.42.93,8.46,2.77a9.81,9.81,0,0,1,3.06,7.66,12.1,12.1,0,0,1-2.06,7,13.5,13.5,0,0,1-5.68,4.71,20,20,0,0,1-8.52,1.69,29,29,0,0,1-3.85-.25,32.48,32.48,0,0,1-3.63-.68L358,129h1.87a14.26,14.26,0,0,0,6.48-1.37,10.19,10.19,0,0,0,4.24-3.84,10.93,10.93,0,0,0,1.51-5.8,5,5,0,0,0-1-3.27,3.42,3.42,0,0,0-2.77-1.26,5.66,5.66,0,0,0-4.28,2,16.26,16.26,0,0,0-3.1,5.18,34.37,34.37,0,0,0-1.87,6.8,41.6,41.6,0,0,0-.61,6.83q0,5.83,1.77,8.92a5.53,5.53,0,0,0,5.07,3.1q6.25,0,11-7c1.73.43,2.59,1.32,2.59,2.66a21.13,21.13,0,0,1-7.26,7.19A18.52,18.52,0,0,1,362.12,151.55Z"/><path class="cls-1" d="M400.25,124.07a40.34,40.34,0,0,1,4-9,16.2,16.2,0,0,1,4.31-4.78,7.24,7.24,0,0,1,3.89-1.44A5,5,0,0,1,415.9,110a7.26,7.26,0,0,1,2,3,11.25,11.25,0,0,1,.68,3.92,14.07,14.07,0,0,1-.82,4.71,9.33,9.33,0,0,1-2.56,3.88,6.59,6.59,0,0,1-4.6,1.55,8.54,8.54,0,0,1-1.37-.11,4.25,4.25,0,0,1-1.22-.39,18.3,18.3,0,0,0,1.36-2.74,10.17,10.17,0,0,0,.8-3.52,3.56,3.56,0,0,0-.26-2,1.57,1.57,0,0,0-1.54-.79c-.87,0-1.84.63-2.92,1.87a20.71,20.71,0,0,0-3.09,5.36,41.86,41.86,0,0,0-2.41,8.46,60.72,60.72,0,0,0-.93,11.15c0,1,0,1.94.14,2.95s.17,2.06.22,3.16l-1.59.11-1.36,0c-2.74,0-4.71-.47-5.9-1.43s-1.8-2.54-1.8-4.75a29.44,29.44,0,0,1,.47-4.5c.31-1.94.65-4.13,1-6.58s.73-5,1-7.59a63.89,63.89,0,0,0,.47-7.52,53.51,53.51,0,0,0-.29-5.54,36.38,36.38,0,0,0-.93-5.25q5.61,1.8,7.51,5a13.93,13.93,0,0,1,1.91,7.33c0,.48,0,1.11-.07,1.87s-.12,1.56-.22,2.38Z"/><path class="cls-1" d="M433.77,122.41a25,25,0,0,1,6-10A11.77,11.77,0,0,1,448,109a8.77,8.77,0,0,1,5.36,1.94,13.82,13.82,0,0,1,4.13,5.44,19.68,19.68,0,0,1,1.58,8.23,32.92,32.92,0,0,1-1.54,10.18,28.24,28.24,0,0,1-4.25,8.38,19.66,19.66,0,0,1-6.18,5.54,12.91,12.91,0,0,1-7.38,1.66,12.64,12.64,0,0,1-2.12-.33,14.06,14.06,0,0,1-2.12-.68,11.68,11.68,0,0,0,5.65-3.49,23.45,23.45,0,0,0,4-6.15,35.37,35.37,0,0,0,2.45-7.34,33.5,33.5,0,0,0,.83-7,17.22,17.22,0,0,0-.51-4.24,8.47,8.47,0,0,0-1.54-3.31,3.48,3.48,0,0,0-2.84-1.3c-1.16,0-2.39.7-3.71,2.09a22.19,22.19,0,0,0-3.7,5.65,41.52,41.52,0,0,0-4,17.73,39.22,39.22,0,0,0,.32,4.93,32.81,32.81,0,0,0,1.05,4.93,13.66,13.66,0,0,1-5.9-2.88,11.77,11.77,0,0,1-3.38-5.11,20.83,20.83,0,0,1-1.08-6.91,70.27,70.27,0,0,1,.72-9.53c.48-3.47,1-7.16,1.69-11s1.21-7.9,1.69-12A109.1,109.1,0,0,0,428,91.7q0-2.52-.15-5.07c-.09-1.71-.26-3.37-.5-5A11.72,11.72,0,0,1,433,84.68a10.82,10.82,0,0,1,2.59,4.86,25.45,25.45,0,0,1,.68,6,54.54,54.54,0,0,1-.54,6.91c-.36,2.73-.78,5.78-1.26,9.13s-.91,6.93-1.29,10.72Z"/><path class="cls-1" d="M479.81,151.91q-6.76,0-10.36-2.59c-2.4-1.73-3.59-3.81-3.59-6.26a6.93,6.93,0,0,1,7.05-7.26,11.69,11.69,0,0,1,1.47.1,5.65,5.65,0,0,1,1.62.47,8,8,0,0,0-1.44,2.45,7.57,7.57,0,0,0-.5,2.66,6.12,6.12,0,0,0,1.44,4,5.4,5.4,0,0,0,4.46,1.76,6.74,6.74,0,0,0,2.69-.57,5.83,5.83,0,0,0,2.23-1.69,4.39,4.39,0,0,0,.9-2.84,5.75,5.75,0,0,0-1.18-3.53,16.68,16.68,0,0,0-3.1-3.06q-1.9-1.47-4-2.91a36.54,36.54,0,0,1-4-3.2,15.13,15.13,0,0,1-3.1-4,11.1,11.1,0,0,1-1.18-5.22,10.24,10.24,0,0,1,1.83-6,12.4,12.4,0,0,1,5.18-4.14,19,19,0,0,1,7.88-1.51,16.54,16.54,0,0,1,7.12,1.26,7.81,7.81,0,0,1,4.82,7.37,7.81,7.81,0,0,1-1.65,4.89,5.49,5.49,0,0,1-4.61,2.16,8.14,8.14,0,0,1-2-.25,7.65,7.65,0,0,1-1.8-.68,7.18,7.18,0,0,0,1.94-2.81,8.35,8.35,0,0,0,.51-2.8,4,4,0,0,0-1.48-3.35,5.41,5.41,0,0,0-3.34-1.11,5.94,5.94,0,0,0-2.49.54,4.82,4.82,0,0,0-2,1.65,4.77,4.77,0,0,0-.8,2.84,6.68,6.68,0,0,0,1.23,3.92,15,15,0,0,0,3.13,3.28c1.27,1,2.62,2,4.06,3a42.53,42.53,0,0,1,4.07,3.17,15.26,15.26,0,0,1,3.12,3.77,9.34,9.34,0,0,1,1.23,4.82,10.22,10.22,0,0,1-1.94,6.23,12.51,12.51,0,0,1-5.44,4.06A20.86,20.86,0,0,1,479.81,151.91Z"/></g></g></svg>